<svg width="20" height="22" viewBox="0 0 20 22" fill="none" xmlns="http://www.w3.org/2000/svg">
<path fill-rule="evenodd" clip-rule="evenodd" d="M5 4H3H1C0.447715 4 0 4.44772 0 5C0 5.55229 0.447715 6 1 6H2V19C2 20.6569 3.34315 22 5 22H15C16.6569 22 18 20.6569 18 19V6H19C19.5523 6 20 5.55229 20 5C20 4.44772 19.5523 4 19 4H17H15V3C15 1.34315 13.6569 0 12 0H8C6.34315 0 5 1.34315 5 3V4ZM7 4H13V3C13 2.44772 12.5523 2 12 2H8C7.44771 2 7 2.44772 7 3V4ZM14 6H6L4 6V19C4 19.5523 4.44772 20 5 20H12C14.0436 20 16 18.0056 16 16V6L14 6Z" fill="#252A31"/>
<path fill-rule="evenodd" clip-rule="evenodd" d="M7 16V10C7 9.44772 7.44772 9 8 9C8.55228 9 9 9.44772 9 10V16C9 16.5523 8.55228 17 8 17C7.44772 17 7 16.5523 7 16ZM11 16V10C11 9.44772 11.4477 9 12 9C12.5523 9 13 9.44772 13 10V16C13 16.5523 12.5523 17 12 17C11.4477 17 11 16.5523 11 16Z" fill="#252A31"/>
</svg>
