<svg width="24" height="24" viewBox="0 0 24 24" fill="none" xmlns="http://www.w3.org/2000/svg">
<path fill-rule="evenodd" clip-rule="evenodd" d="M9.45068 6.90136C10.8585 8.30923 13.1414 8.30923 14.5493 6.90136L20.9226 0.527978C21.6267 -0.175993 22.7679 -0.175993 23.472 0.527978C24.176 1.23195 24.176 2.37333 23.472 3.07731L17.0986 9.45067C15.6907 10.8585 15.6907 13.1414 17.0986 14.5493L23.472 20.9226C24.176 21.6267 24.176 22.7679 23.472 23.472C22.7679 24.176 21.6267 24.176 20.9226 23.472L14.5493 17.0986C13.1414 15.6907 10.8585 15.6907 9.45068 17.0986L3.07732 23.472C2.37333 24.176 1.23197 24.176 0.527978 23.472C-0.175993 22.7679 -0.175993 21.6267 0.527978 20.9226L6.90137 14.5493C8.30924 13.1414 8.30924 10.8585 6.90137 9.45067L0.527978 3.07731C-0.175993 2.37333 -0.175993 1.23195 0.527978 0.527978C1.23197 -0.175993 2.37333 -0.175993 3.07732 0.527978L9.45068 6.90136Z" fill="#252A31"/>
</svg>
